<svg xmlns="http://www.w3.org/2000/svg" width="1600" height="980" viewBox="0 0 1600 980" role="img" aria-label="Colocación del Paciente en Tablero Espinal - Secuencia de 8 pasos">
  <defs>
    <style>
      .title{font:800 36px/1.2 system-ui,-apple-system,Segoe UI,Roboto,Helvetica,Arial,sans-serif;fill:#111827}
      .sub{font:500 14px/1.4 system-ui,-apple-system,Segoe UI,Roboto,Helvetica,Arial,sans-serif;fill:#4b5563}
      .stepN{font:800 16px/1.2 system-ui,-apple-system,Segoe UI,Roboto,Helvetica,Arial,sans-serif;fill:#0f172a}
      .stepT{font:700 18px/1.25 system-ui,-apple-system,Segoe UI,Roboto,Helvetica,Arial,sans-serif;fill:#111827}
      .lbl{font:600 12px/1.2 system-ui,-apple-system,Segoe UI,Roboto,Helvetica,Arial,sans-serif;fill:#475569}
      .note{font:500 12px/1.35 system-ui,-apple-system,Segoe UI,Roboto,Helvetica,Arial,sans-serif;fill:#6b7280}
      .panel{fill:#ffffff;stroke:#e5e7eb;stroke-width:1}
      .panelHead{fill:#f8fafc}
      .gridLine{stroke:#e5e7eb;stroke-width:1}
      .patient{fill:#e5eefc;stroke:#1f2937;stroke-width:2}
      .patient2{fill:#e5eefc;stroke:#1f2937;stroke-width:2}
      .head{fill:#e5eefc;stroke:#1f2937;stroke-width:2}
      .board{fill:#fef3c7;stroke:#b45309;stroke-width:2}
      .strap{stroke:#2563eb;stroke-width:4;stroke-linecap:round;opacity:.85}
      .cSpine{stroke:#ef4444;stroke-width:5;stroke-linecap:round}
      .collar{fill:#fde2e2;stroke:#ef4444;stroke-width:2}
      .tes{fill:#d1fae5;stroke:#065f46;stroke-width:2}
      .tes2{fill:#d1fae5;stroke:#065f46;stroke-width:2}
      .hand{stroke:#065f46;stroke-width:3;fill:none;stroke-linecap:round;stroke-linejoin:round}
      .arrow{stroke:#64748b;stroke-width:3;fill:none;stroke-linecap:round;stroke-linejoin:round}
      .ok{fill:#dcfce7;stroke:#16a34a;stroke-width:2}
      .warn{fill:#fff7ed;stroke:#f59e0b;stroke-width:2}
    </style>

    <marker id="arrowHead" viewBox="0 0 10 10" refX="9" refY="5" markerWidth="8" markerHeight="8" orient="auto-start-reverse">
      <path d="M 0 0 L 10 5 L 0 10 z" fill="#64748b"></path>
    </marker>
  </defs>

  <!-- Background -->
  <rect x="0" y="0" width="1600" height="980" fill="#ffffff"></rect>

  <!-- Title -->
  <text class="title" x="60" y="64">Colocación del Paciente en Tablero Espinal</text>
  <text class="sub" x="60" y="92">Secuencia educativa en 8 pasos (estilo manual TES). Vistas lateral y superior según el paso. Esquema orientativo.</text>

  <!-- Layout: 2 rows x 4 panels -->
  <!-- Panel sizes -->
  <!-- margin 60, gap 24 -->
  <!-- panelW = (1600 - 2*60 - 3*24)/4 = 352 -->
  <!-- panelH = 360 -->
  <!-- Row1 y=130, Row2 y=514 -->
  <!-- Each panel has header band -->

  <!-- Helper: draw a panel group -->
  <!-- PANEL 1 -->
  <g transform="translate(60,130)">
    <rect class="panel" x="0" y="0" width="352" height="360" rx="16"></rect>
    <rect class="panelHead" x="0" y="0" width="352" height="66" rx="16"></rect>
    <text class="stepN" x="20" y="28">PASO 1</text>
    <text class="stepT" x="20" y="52">Control manual cervical</text>

    <!-- View label -->
    <text class="lbl" x="260" y="28">Vista lateral</text>

    <!-- Scene (lateral) -->
    <!-- Patient (side) -->
    <g transform="translate(40,95)">
      <!-- ground line -->
      <line class="gridLine" x1="0" y1="210" x2="272" y2="210"></line>
      <!-- patient body -->
      <rect class="patient" x="80" y="120" width="160" height="44" rx="22"></rect>
      <!-- head -->
      <circle class="head" cx="70" cy="142" r="22"></circle>
      <!-- neck highlight -->
      <line class="cSpine" x1="88" y1="142" x2="98" y2="142"></line>

      <!-- TES at head -->
      <circle class="tes" cx="40" cy="110" r="18"></circle>
      <rect class="tes" x="24" y="128" width="34" height="54" rx="12"></rect>
      <!-- hands -->
      <path class="hand" d="M52 138 C65 140, 64 152, 54 156"></path>
      <path class="hand" d="M52 130 C66 132, 70 140, 62 146"></path>
      <!-- emphasis arrows -->
      <path class="arrow" marker-end="url(#arrowHead)" d="M30 70 C60 60, 72 92, 62 118"></path>
      <text class="note" x="0" y="32">Sujeción neutra sin tracción</text>
    </g>
  </g>

  <!-- PANEL 2 -->
  <g transform="translate(436,130)">
    <rect class="panel" x="0" y="0" width="352" height="360" rx="16"></rect>
    <rect class="panelHead" x="0" y="0" width="352" height="66" rx="16"></rect>
    <text class="stepN" x="20" y="28">PASO 2</text>
    <text class="stepT" x="20" y="52">Colocación de collarín cervical</text>
    <text class="lbl" x="256" y="28">Vista lateral</text>

    <g transform="translate(40,95)">
      <line class="gridLine" x1="0" y1="210" x2="272" y2="210"></line>
      <rect class="patient" x="80" y="120" width="160" height="44" rx="22"></rect>
      <circle class="head" cx="70" cy="142" r="22"></circle>

      <!-- Collar -->
      <rect class="collar" x="82" y="132" width="18" height="20" rx="6"></rect>
      <line class="cSpine" x1="88" y1="142" x2="98" y2="142" opacity="0.5"></line>

      <!-- TES head holder -->
      <circle class="tes" cx="40" cy="110" r="18"></circle>
      <rect class="tes" x="24" y="128" width="34" height="54" rx="12"></rect>
      <path class="hand" d="M52 134 C66 136, 70 142, 62 148"></path>

      <!-- TES applying collar -->
      <circle class="tes2" cx="214" cy="118" r="16"></circle>
      <rect class="tes2" x="200" y="134" width="28" height="46" rx="10"></rect>
      <path class="hand" d="M200 150 C170 148, 140 142, 104 142" marker-end="url(#arrowHead)"></path>
      <text class="note" x="0" y="32">Medir y ajustar antes de colocar</text>
    </g>
  </g>

  <!-- PANEL 3 -->
  <g transform="translate(812,130)">
    <rect class="panel" x="0" y="0" width="352" height="360" rx="16"></rect>
    <rect class="panelHead" x="0" y="0" width="352" height="66" rx="16"></rect>
    <text class="stepN" x="20" y="28">PASO 3</text>
    <text class="stepT" x="20" y="52">Alineación del paciente</text>
    <text class="lbl" x="252" y="28">Vista superior</text>

    <!-- Scene (top) -->
    <g transform="translate(34,92)">
      <!-- patient top -->
      <rect class="patient2" x="96" y="70" width="160" height="54" rx="26"></rect>
      <circle class="head" cx="80" cy="97" r="22"></circle>
      <!-- collar shown -->
      <rect class="collar" x="94" y="87" width="20" height="20" rx="6"></rect>

      <!-- spine axis -->
      <line class="cSpine" x1="100" y1="97" x2="250" y2="97" opacity="0.65"></line>

      <!-- TES positions (top view) -->
      <circle class="tes" cx="48" cy="56" r="16"></circle>
      <rect class="tes" x="34" y="72" width="28" height="44" rx="10"></rect>
      <circle class="tes" cx="300" cy="56" r="16"></circle>
      <rect class="tes" x="286" y="72" width="28" height="44" rx="10"></rect>

      <!-- arrows to align -->
      <path class="arrow" marker-end="url(#arrowHead)" d="M120 150 C150 170, 210 170, 240 150"></path>
      <text class="note" x="0" y="14">Alinear cabeza-hombros-caderas (posición neutra)</text>

      <!-- corner label -->
      <rect class="warn" x="0" y="180" width="320" height="56" rx="12"></rect>
      <text class="note" x="12" y="204">Evitar rotaciones. Reposicionar en bloque</text>
      <text class="note" x="12" y="224">si hay dolor/ resistencia: reevaluar.</text>
    </g>
  </g>

  <!-- PANEL 4 -->
  <g transform="translate(1188,130)">
    <rect class="panel" x="0" y="0" width="352" height="360" rx="16"></rect>
    <rect class="panelHead" x="0" y="0" width="352" height="66" rx="16"></rect>
    <text class="stepN" x="20" y="28">PASO 4</text>
    <text class="stepT" x="20" y="52">Giro en bloque (log-roll)</text>
    <text class="lbl" x="256" y="28">Vista lateral</text>

    <g transform="translate(40,95)">
      <line class="gridLine" x1="0" y1="210" x2="272" y2="210"></line>

      <!-- patient rolled to side -->
      <rect class="patient" x="98" y="118" width="150" height="48" rx="24" transform="rotate(-18 98 118)"></rect>
      <circle class="head" cx="82" cy="138" r="22" transform="rotate(-18 82 138)"></circle>
      <rect class="collar" x="94" y="128" width="18" height="20" rx="6" transform="rotate(-18 94 128)"></rect>

      <!-- rotation arrow -->
      <path class="arrow" marker-end="url(#arrowHead)" d="M160 86 C210 98, 224 140, 190 170"></path>
      <text class="note" x="0" y="32">A la orden: girar en bloque</text>

      <!-- TES team (3) -->
      <circle class="tes" cx="40" cy="110" r="18"></circle>
      <rect class="tes" x="24" y="128" width="34" height="54" rx="12"></rect>
      <path class="hand" d="M52 134 C72 132, 82 136, 98 142"></path>

      <circle class="tes2" cx="226" cy="110" r="16"></circle>
      <rect class="tes2" x="212" y="126" width="28" height="50" rx="10"></rect>
      <path class="hand" d="M212 146 C190 146, 170 148, 140 152"></path>
    </g>
  </g>

  <!-- PANEL 5 -->
  <g transform="translate(60,514)">
    <rect class="panel" x="0" y="0" width="352" height="360" rx="16"></rect>
    <rect class="panelHead" x="0" y="0" width="352" height="66" rx="16"></rect>
    <text class="stepN" x="20" y="28">PASO 5</text>
    <text class="stepT" x="20" y="52">Colocación del tablero espinal</text>
    <text class="lbl" x="252" y="28">Vista superior</text>

    <g transform="translate(34,92)">
      <!-- patient on side (top-ish) -->
      <rect class="patient2" x="110" y="76" width="160" height="46" rx="23"></rect>
      <circle class="head" cx="94" cy="99" r="20"></circle>
      <rect class="collar" x="108" y="89" width="18" height="20" rx="6"></rect>

      <!-- board sliding in -->
      <rect class="board" x="40" y="150" width="260" height="64" rx="14"></rect>
      <circle cx="70" cy="182" r="5" fill="#b45309" opacity=".45"></circle>
      <circle cx="270" cy="182" r="5" fill="#b45309" opacity=".45"></circle>

      <path class="arrow" marker-end="url(#arrowHead)" d="M290 182 C320 182, 330 140, 292 116"></path>
      <text class="note" x="0" y="14">Introducir el tablero por la espalda</text>

      <!-- TES icons -->
      <circle class="tes" cx="20" cy="52" r="14"></circle>
      <rect class="tes" x="8" y="66" width="24" height="38" rx="9"></rect>
      <circle class="tes2" cx="320" cy="52" r="14"></circle>
      <rect class="tes2" x="308" y="66" width="24" height="38" rx="9"></rect>

      <rect class="warn" x="0" y="238" width="320" height="52" rx="12"></rect>
      <text class="note" x="12" y="260">Mantener control cervical durante toda la maniobra.</text>
    </g>
  </g>

  <!-- PANEL 6 -->
  <g transform="translate(436,514)">
    <rect class="panel" x="0" y="0" width="352" height="360" rx="16"></rect>
    <rect class="panelHead" x="0" y="0" width="352" height="66" rx="16"></rect>
    <text class="stepN" x="20" y="28">PASO 6</text>
    <text class="stepT" x="20" y="52">Retorno a decúbito supino</text>
    <text class="lbl" x="252" y="28">Vista lateral</text>

    <g transform="translate(40,95)">
      <line class="gridLine" x1="0" y1="210" x2="272" y2="210"></line>

      <!-- board under patient -->
      <rect class="board" x="76" y="154" width="190" height="40" rx="12"></rect>
      <!-- patient back on board -->
      <rect class="patient" x="90" y="120" width="160" height="44" rx="22"></rect>
      <circle class="head" cx="80" cy="142" r="22"></circle>
      <rect class="collar" x="92" y="132" width="18" height="20" rx="6"></rect>

      <!-- arrow back -->
      <path class="arrow" marker-end="url(#arrowHead)" d="M204 88 C242 108, 240 148, 204 170"></path>
      <text class="note" x="0" y="32">Bajar en bloque sobre el tablero</text>

      <!-- TES -->
      <circle class="tes" cx="40" cy="110" r="18"></circle>
      <rect class="tes" x="24" y="128" width="34" height="54" rx="12"></rect>
      <path class="hand" d="M52 134 C66 136, 74 140, 84 142"></path>

      <circle class="tes2" cx="230" cy="112" r="16"></circle>
      <rect class="tes2" x="216" y="128" width="28" height="52" rx="10"></rect>
    </g>
  </g>

  <!-- PANEL 7 -->
  <g transform="translate(812,514)">
    <rect class="panel" x="0" y="0" width="352" height="360" rx="16"></rect>
    <rect class="panelHead" x="0" y="0" width="352" height="66" rx="16"></rect>
    <text class="stepN" x="20" y="28">PASO 7</text>
    <text class="stepT" x="20" y="52">Fijación con correas</text>
    <text class="lbl" x="252" y="28">Vista superior</text>

    <g transform="translate(34,92)">
      <!-- board -->
      <rect class="board" x="40" y="54" width="272" height="230" rx="18"></rect>
      <!-- patient on board -->
      <rect class="patient2" x="122" y="110" width="160" height="54" rx="26"></rect>
      <circle class="head" cx="106" cy="137" r="22"></circle>
      <rect class="collar" x="120" y="127" width="20" height="20" rx="6"></rect>

      <!-- straps -->
      <line class="strap" x1="72" y1="118" x2="298" y2="118"></line>
      <line class="strap" x1="72" y1="148" x2="298" y2="148"></line>
      <line class="strap" x1="72" y1="180" x2="298" y2="180"></line>
      <line class="strap" x1="72" y1="212" x2="298" y2="212"></line>

      <!-- strap buckles -->
      <rect x="178" y="112" width="26" height="12" rx="4" fill="#1d4ed8" opacity=".35"></rect>
      <rect x="178" y="142" width="26" height="12" rx="4" fill="#1d4ed8" opacity=".35"></rect>
      <rect x="178" y="174" width="26" height="12" rx="4" fill="#1d4ed8" opacity=".35"></rect>
      <rect x="178" y="206" width="26" height="12" rx="4" fill="#1d4ed8" opacity=".35"></rect>

      <text class="note" x="0" y="14">Orden habitual: tórax → pelvis → piernas</text>
      <text class="note" x="0" y="34">Sin comprometer ventilación.</text>
    </g>
  </g>

  <!-- PANEL 8 -->
  <g transform="translate(1188,514)">
    <rect class="panel" x="0" y="0" width="352" height="360" rx="16"></rect>
    <rect class="panelHead" x="0" y="0" width="352" height="66" rx="16"></rect>
    <text class="stepN" x="20" y="28">PASO 8</text>
    <text class="stepT" x="20" y="52">Verificación final de seguridad</text>
    <text class="lbl" x="252" y="28">Vista mixta</text>

    <g transform="translate(32,92)">
      <!-- Left: top view mini -->
      <rect class="panel" x="0" y="10" width="150" height="220" rx="14"></rect>
      <text class="lbl" x="16" y="36">Superior</text>
      <rect class="board" x="16" y="52" width="118" height="162" rx="14"></rect>
      <rect class="patient2" x="40" y="98" width="90" height="40" rx="20"></rect>
      <circle class="head" cx="34" cy="118" r="16"></circle>
      <line class="strap" x1="26" y1="104" x2="126" y2="104"></line>
      <line class="strap" x1="26" y1="130" x2="126" y2="130"></line>
      <line class="strap" x1="26" y1="156" x2="126" y2="156"></line>

      <!-- Right: checklist -->
      <rect class="ok" x="170" y="10" width="150" height="220" rx="14"></rect>
      <text class="lbl" x="186" y="36">Checklist</text>

      <!-- check marks -->
      <g transform="translate(186,58)">
        <path d="M0 10 L8 18 L22 2" stroke="#16a34a" stroke-width="4" fill="none" stroke-linecap="round" stroke-linejoin="round"></path>
        <text class="note" x="32" y="14">Control cervical</text>

        <g transform="translate(0,36)">
          <path d="M0 10 L8 18 L22 2" stroke="#16a34a" stroke-width="4" fill="none" stroke-linecap="round" stroke-linejoin="round"></path>
          <text class="note" x="32" y="14">Collarín correcto</text>
        </g>

        <g transform="translate(0,72)">
          <path d="M0 10 L8 18 L22 2" stroke="#16a34a" stroke-width="4" fill="none" stroke-linecap="round" stroke-linejoin="round"></path>
          <text class="note" x="32" y="14">Correas firmes</text>
        </g>

        <g transform="translate(0,108)">
          <path d="M0 10 L8 18 L22 2" stroke="#16a34a" stroke-width="4" fill="none" stroke-linecap="round" stroke-linejoin="round"></path>
          <text class="note" x="32" y="14">Extremidades seguras</text>
        </g>

        <g transform="translate(0,144)">
          <path d="M0 10 L8 18 L22 2" stroke="#16a34a" stroke-width="4" fill="none" stroke-linecap="round" stroke-linejoin="round"></path>
          <text class="note" x="32" y="14">Reevaluar SV</text>
        </g>
      </g>

      <text class="note" x="0" y="260">Confirmar ventilación, pulsos distales y confort.</text>
      <text class="note" x="0" y="282">Documentar hallazgos y tiempos.</text>
    </g>
  </g>

  <!-- Footer -->
  <text class="note" x="60" y="942">Uso didáctico TES. Adaptar a protocolos locales y situación clínica (prioridad: vía aérea/ventilación/hemorragias).</text>
</svg>
